#usda 1.0
(
    defaultPrim = "World"
    metersPerUnit = 1
    subLayers = [@./scene_source.usda@]
    upAxis = "Z"
)

over "World"
{
    over "Objects"
    {
        over "benchmark_building_blocks_0717465e"
        {
            double3 xformOp:translate = (-0.142249, 0.238591, 0.885)
            quatf xformOp:orient = (0.994782, 0, 0, -0.102023)
        }
        over "benchmark_building_blocks_47d4eb46"
        {
            double3 xformOp:translate = (-0.081744, 0.110726, 0.885)
            quatf xformOp:orient = (0.998804, 0, 0, 0.048885)
        }
        over "benchmark_building_blocks_67be70a6"
        {
            double3 xformOp:translate = (-0.16627, -0.013066, 0.885)
            quatf xformOp:orient = (0.988511, 0, 0, -0.15115)
        }
        over "table_614a6115"
        {
        }
    }

    def Scope "Augmentation"
    {
    }
}
