#usda 1.0
(
    defaultPrim = "World"
    metersPerUnit = 1
    subLayers = [@./scene_source.usda@]
    upAxis = "Z"
)

over "World"
{
    over "Objects"
    {
        over "benchmark_lemon_14af8085"
        {
            double3 xformOp:translate = (-0.079153, 0.089617, 0.904)
            quatf xformOp:orient = (0.968579, 0, 0, 0.248705)
        }
        over "benchmark_lemon_e7367cc7"
        {
            double3 xformOp:translate = (0.042651, 0.184755, 0.954)
            quatf xformOp:orient = (0.976228, 0, 0, 0.216746)
        }
        over "benchmark_peach_f9dd218c"
        {
            double3 xformOp:translate = (-0.131546, -0.180399, 0.951)
            quatf xformOp:orient = (0.998112, 0, 0, 0.061421)
        }
        over "benchmark_storage_box_6f5da4a1"
        {
            double3 xformOp:translate = (-0.044983, -0.215823, 0.908)
            quatf xformOp:orient = (0.980632, 0, 0, -0.195857)
        }
        over "benchmark_storage_box_f0fcda6f"
        {
            double3 xformOp:translate = (0.142309, 0.036152, 0.908)
            quatf xformOp:orient = (0.967525, 0, 0, 0.252776)
        }
        over "table_39e43d9d"
        {
        }
    }

    def Scope "Augmentation"
    {
    }
}
